<?xml version="1.0" encoding="utf-8"?>
<svg viewBox="0 0 100 100" xmlns="http://www.w3.org/2000/svg" width="200px" height="200px" xmlns:xlink="http://www.w3.org/1999/xlink"
     style="width:100%;height:100%;background-size:initial;background-repeat-y:initial;background-repeat-x:initial;background-position-y:initial;background-position-x:initial;background-origin:initial;background-color:initial;background-clip:initial;background-attachment:initial;animation-play-state:paused">
    <g class="ldl-scale" style="transform-origin:50% 50%;transform:rotate(0deg) scale(0.8, 0.8);animation-play-state:paused">
        <g style="animation-play-state:paused">
            <path stroke-miterlimit="10" stroke-width="3" stroke="#333" fill="#e15b64"
                  d="M78.6 48.8c.7-2.3.6-4.7-.1-6.8-1.2-3.7-4.1-6.8-8.2-7.9-5.5-1.6-11.3 1-13.9 5.9-.4.7-.7 1.5-.9 2.3-.4 1.3-.5 2.6-.4 3.9.1 1.2-.1 2.4-.4 3.6h0c-6.1 21.4-24.9 35.7-45.9 37-1.4.1-1.7 2-.4 2.5 4.6 1.9 9.7 3.1 15.1 3.6C48 94.9 70.3 78.6 77 55l1.6-6.2z"
                  style="stroke:rgb(51, 51, 51);fill:rgb(225, 91, 100);"></path>
        </g>
        <path stroke-miterlimit="10" stroke-width="3" stroke="#333" fill="#abbd81"
              d="M92.5 9.4c0-1.4-1.2-2.5-2.6-2.4-9.4.3-21.1 9.6-22.3 20.2-3.7.5-6.8 3.2-7.9 6.9-.2.7-.3 1.5-.3 2.2 2.1-1.7 4.6-2.7 7.4-2.7.3 1.8 1.1 6.8 1.5 6.2.3-.5 2.1-3.5 3.3-5.3 3 1.2 5.2 3.5 6.4 6.2.2-.4.3-.8.5-1.2 1.4-4.8-1.2-9.9-5.8-11.7.9-7.8 10.4-15.6 17.4-15.8 1.4-.1 2.4-1.2 2.4-2.6z"
              style="stroke:rgb(51, 51, 51);fill:rgb(171, 189, 129);"></path>
    </g>
</svg>
